<svg width="117" height="117" viewBox="0 0 117 117" fill="none" xmlns="http://www.w3.org/2000/svg">
<path d="M107.37 60.613C110.582 61.099 113.047 63.414 112.492 67.0842C112.042 70.0583 109.928 71.4053 108.821 71.2377C108.093 71.1276 107.71 70.665 107.827 69.8899C108.055 68.387 110.044 69.1412 110.403 66.7682C110.65 65.1387 109.446 63.581 106.978 63.2075C104.905 62.8939 102.977 63.4436 102.637 65.6901C102.328 67.7308 104.519 68.0137 104.33 69.2635C104.234 69.8963 103.774 70.474 103.142 70.3783C101.496 70.1293 100.168 67.8894 100.549 65.374C101.088 61.8146 103.447 60.0193 107.37 60.613Z" fill="white"/>
<path d="M100.395 73.6527L108.453 77.3843C109.164 77.7137 109.428 78.4002 109.092 79.1261C108.756 79.8521 108.062 80.0948 107.35 79.7654L99.9023 76.3162L98.06 80.2943C97.744 80.9767 97.1401 81.367 96.4867 81.0645C95.8334 80.7619 95.7404 80.0488 96.0564 79.3665L98.3559 74.401C98.7459 73.559 99.3353 73.1619 100.395 73.6527Z" fill="white"/>
<path d="M94.8315 83.2626L102.301 88.8225C102.93 89.2906 103.048 90.0166 102.571 90.6584C102.093 91.3001 101.364 91.3956 100.735 90.9275L93.2648 85.3675C92.6358 84.8994 92.518 84.1735 92.9956 83.5317C93.4733 82.89 94.2026 82.7945 94.8315 83.2626Z" fill="white"/>
<path d="M93.7416 92.3152C95.8385 94.7957 96.1695 98.1613 93.3347 100.558C91.0376 102.5 88.5601 102.122 87.8371 101.266C87.3619 100.704 87.3782 100.104 87.9769 99.5978C89.1377 98.6165 90.1384 100.494 91.9712 98.9448C93.2298 97.8809 93.3491 95.9154 91.7377 94.0092C90.3846 92.4085 88.5716 91.5527 86.8365 93.0195C85.2603 94.352 86.7224 96.0072 85.7571 96.8232C85.2683 97.2364 84.542 97.3685 84.1288 96.8798C83.0546 95.609 83.5302 93.0489 85.4731 91.4066C88.2223 89.0825 91.1799 89.2849 93.7416 92.3152Z" fill="white"/>
<path d="M79.7019 97.198L83.3933 105.747C83.7041 106.467 83.4433 107.155 82.7089 107.472C81.9744 107.789 81.2951 107.507 80.9843 106.787L79.4747 103.291L77.4862 109.099C77.334 109.514 77.1858 109.857 76.7598 110.041C76.1869 110.288 75.4618 110.183 75.1954 109.566C75.0369 109.199 75.12 108.866 75.2368 108.572L76.582 104.906L71.737 101.718C71.3708 101.475 71.0025 101.268 70.8694 100.96C70.4824 100.064 71.0293 99.5137 71.6022 99.2664C72.0869 99.057 72.4021 99.0604 72.9472 99.435L77.5755 102.525L78.3267 100.633L77.2928 98.2382C76.982 97.5185 77.2428 96.8308 77.9772 96.5136C78.7117 96.1965 79.3911 96.4783 79.7019 97.198Z" fill="white"/>
<path d="M60.7477 102.41L60.9378 110.616L63.4171 110.558C64.1689 110.541 64.7857 110.911 64.8023 111.631C64.819 112.35 64.2201 112.748 63.4683 112.766L55.8863 112.941C55.1345 112.959 54.5178 112.589 54.5011 111.869C54.4844 111.149 55.0834 110.751 55.8352 110.734L58.3145 110.677L58.1244 102.471C58.1063 101.687 58.6059 101.147 59.4057 101.129C60.2055 101.11 60.7296 101.626 60.7477 102.41Z" fill="white"/>
<path d="M49.7526 106.893C48.7469 110.116 46.0435 111.904 42.439 110.779C38.8344 109.654 37.6277 106.646 38.6334 103.424C39.601 100.323 42.2755 98.0904 46.0328 99.2629C49.9734 100.493 50.7917 103.564 49.7526 106.893ZM47.2477 106.112C47.9055 104.004 47.7558 102.013 45.4037 101.279C43.1279 100.569 41.7961 102.097 41.1383 104.205C40.4805 106.313 41.0215 108.124 43.0681 108.763C45.1148 109.402 46.59 108.22 47.2477 106.112Z" fill="white"/>
<path d="M19.8787 94.7446L28.4066 90.1684C29.1097 89.7874 29.5986 90.0083 30.2081 90.5508C30.8177 91.0933 31.0938 91.5532 30.797 92.2958L27.1695 101.233C27.051 101.535 26.9167 101.758 26.7784 101.913C26.1934 102.571 25.4999 102.339 25.0099 101.903C24.484 101.435 24.4418 100.905 24.7837 100.16L28.227 92.7287L28.2031 92.7074L21.1503 96.9258C20.4498 97.3519 19.9183 97.3715 19.4641 96.9673C18.9741 96.5312 18.6636 95.8693 19.2486 95.2119C19.3869 95.0566 19.5929 94.8972 19.8787 94.7446Z" fill="white"/>
<path d="M23.7155 85.6574L16.1851 91.1352C15.5511 91.5964 14.8229 91.4929 14.3523 90.846C13.8817 90.199 14.0075 89.4744 14.6415 89.0132L22.172 83.5354C22.806 83.0742 23.5341 83.1777 24.0047 83.8246C24.4753 84.4716 24.3495 85.1962 23.7155 85.6574Z" fill="white"/>
<path d="M19.2193 79.9585L11.476 83.3364C10.4054 83.8034 9.82503 83.3932 9.45398 82.5427L6.99097 76.8965C6.6839 76.1926 6.6653 75.5897 7.4279 75.257C8.1905 74.9244 8.61973 75.3481 8.9268 76.052L10.9548 80.7009L13.2426 79.7029L11.4641 75.626C11.189 74.9954 11.1475 74.42 11.8954 74.0937C12.6433 73.7674 13.0368 74.1893 13.3119 74.8199L15.0904 78.8969L17.6422 77.7837L15.563 73.0175C15.256 72.3135 15.2374 71.7107 16 71.378C16.7626 71.0454 17.1918 71.4691 17.4989 72.173L20.013 77.9365C20.3841 78.7871 20.2899 79.4915 19.2193 79.9585Z" fill="white"/>
<path d="M5.22741 55.2296L14.1211 56.8387C15.0482 57.0112 15.4115 57.3696 15.4818 58.327C15.5544 59.3164 15.1653 59.6979 14.3041 59.9857L7.42428 62.2075L7.42662 62.2394L14.5571 63.4324C15.45 63.5754 15.8918 63.912 15.9645 64.9013C16.0348 65.8587 15.7278 66.2663 14.8358 66.5725L6.27252 69.4633C6.03785 69.5447 5.78722 69.6273 5.53191 69.646C4.73406 69.7046 4.30305 69.0785 4.25853 68.4721C4.20932 67.8019 4.48321 67.3807 5.23743 67.1649L12.7513 65.057L12.7489 65.0251L4.89447 63.805C4.24565 63.7083 3.8918 63.4776 3.82033 62.5042C3.73949 61.4031 4.24967 61.1411 4.95602 60.9288L12.2802 58.6423L12.2779 58.6104L4.53562 57.6067C3.75796 57.5033 3.42549 57.1267 3.37979 56.5043C3.33527 55.898 3.6702 55.2156 4.46805 55.157C4.72337 55.1383 4.98337 55.1834 5.22741 55.2296Z" fill="white"/>
<path d="M15.2573 46.5895L6.92008 43.5324C6.184 43.2625 5.86454 42.6 6.13996 41.8489C6.41537 41.0978 7.08736 40.7989 7.82344 41.0688L15.5297 43.8945L17.039 39.7785C17.2979 39.0725 17.8677 38.6339 18.5437 38.8817C19.2197 39.1296 19.3709 39.8326 19.112 40.5387L17.2282 45.6762C16.9087 46.5475 16.3539 46.9916 15.2573 46.5895Z" fill="white"/>
<path d="M19.9216 36.6874L12.0105 31.7754C11.3444 31.3618 11.1659 30.6484 11.5879 29.9687C12.0099 29.2891 12.7285 29.1326 13.3946 29.5462L21.3057 34.4582C21.9717 34.8717 22.1502 35.5852 21.7282 36.2649C21.3063 36.9445 20.5876 37.101 19.9216 36.6874Z" fill="white"/>
<path d="M23.818 18.1986L27.9864 26.9332C28.3337 27.6535 28.09 28.1314 27.5193 28.7146C26.9486 29.2979 26.4762 29.5519 25.7485 29.2204L16.9923 25.1748C16.6967 25.0423 16.4801 24.8975 16.3315 24.7521C15.7025 24.1366 15.9666 23.4549 16.4253 22.986C16.9177 22.4828 17.4493 22.4657 18.1775 22.8424L25.4374 26.6328L25.4598 26.61L21.5792 19.3658C21.1867 18.646 21.1922 18.1141 21.6174 17.6795C22.0762 17.2106 22.752 16.9317 23.381 17.5472C23.5297 17.6926 23.6791 17.906 23.818 18.1986Z" fill="white"/>
<path d="M32.7623 21.6732L28.6001 14.3217C28.0247 13.3053 28.3725 12.6855 29.18 12.2283L34.5405 9.19341C35.2088 8.81503 35.8065 8.73406 36.2164 9.45808C36.6263 10.1821 36.2494 10.6529 35.5811 11.0313L31.1673 13.5302L32.3971 15.7022L36.2678 13.5108C36.8665 13.1718 37.4345 13.0709 37.8365 13.781C38.2385 14.4911 37.8597 14.9262 37.261 15.2651L33.3903 17.4566L34.7619 19.8792L39.287 17.3173C39.9553 16.9389 40.553 16.858 40.9629 17.582C41.3728 18.306 40.9959 18.7768 40.3276 19.1552L34.8557 22.2531C34.0481 22.7103 33.3377 22.6897 32.7623 21.6732Z" fill="white"/>
<path d="M48.357 14.6155L47.4792 6.21327C47.3578 5.05159 47.9243 4.62241 48.8473 4.52598L52.03 4.19348C54.8785 3.8959 57.6179 4.86449 58.0868 9.35207C58.4658 12.9803 56.6643 15.292 53.1792 15.6561L50.0443 15.9836C49.1213 16.0801 48.4784 15.7772 48.357 14.6155ZM50.1489 6.5135L50.907 13.77L53.103 13.5406C55.1877 13.3228 55.6615 11.3911 55.477 9.62472C55.2409 7.36502 54.2386 6.08624 52.329 6.28574L50.1489 6.5135Z" fill="white"/>
<path d="M63.4644 13.896L65.2054 5.62933C65.4461 4.4864 66.1169 4.2516 67.025 4.44284L73.0527 5.7123C73.8043 5.87057 74.3061 6.20516 74.1346 7.0193C73.9632 7.83345 73.369 7.93723 72.6175 7.77896L67.6544 6.73372L67.14 9.17614L71.4925 10.0928C72.1657 10.2346 72.6585 10.5346 72.4903 11.333C72.3222 12.1315 71.7503 12.2073 71.0771 12.0655L66.7245 11.1489L66.1508 13.8731L71.2392 14.9447C71.9907 15.103 72.4925 15.4376 72.3211 16.2517C72.1496 17.0659 71.5555 17.1697 70.8039 17.0114L64.6509 15.7156C63.7428 15.5243 63.2237 15.0389 63.4644 13.896Z" fill="white"/>
<path d="M75.565 17.2452L80.3849 9.2216C80.9287 8.31637 81.6695 8.4814 82.273 8.84392L82.9313 9.23939C83.6308 9.65959 83.7952 10.1316 83.5752 11.0261L81.7301 18.5409L81.7575 18.5573L87.4979 13.3824C88.1842 12.7682 88.6782 12.6916 89.3777 13.1118L90.0086 13.4908C90.6121 13.8533 91.1057 14.4298 90.5619 15.335L85.742 23.3586C85.4042 23.921 84.8086 24.2911 84.0816 23.8544C83.3547 23.4178 83.4017 22.7181 83.7395 22.1557L87.4142 16.0386L87.3867 16.0221L81.35 21.3176C80.919 21.6933 80.4607 21.6793 79.9944 21.3992C79.5281 21.119 79.3005 20.721 79.4298 20.1641L81.2696 12.3475L81.2422 12.331L77.5675 18.4481C77.2297 19.0105 76.6341 19.3806 75.9072 18.9439C75.1802 18.5072 75.2272 17.8075 75.565 17.2452Z" fill="white"/>
<path d="M93.242 23.4667C95.913 21.4019 99.1529 21.4859 101.462 24.4733C103.772 27.4607 103.037 30.6174 100.366 32.6822C97.7963 34.6687 94.325 34.9657 91.9178 31.8517C89.3931 28.5858 90.4824 25.6 93.242 23.4667ZM94.8469 25.5427C93.1 26.8931 92.0817 28.6105 93.5887 30.56C95.0468 32.4461 97.0142 31.9566 98.7611 30.6062C100.508 29.2557 101.103 27.4613 99.7914 25.765C98.4801 24.0688 96.5937 24.1923 94.8469 25.5427Z" fill="white"/>
<path d="M104.585 42.4359C106.11 42.01 107.707 42.9098 108.133 44.4355C108.559 45.9612 107.659 47.5579 106.133 47.9838C104.608 48.4097 103.011 47.5099 102.585 45.9842C102.159 44.4585 103.059 42.8618 104.585 42.4359Z" fill="white"/>
</svg>
